<svg width="64" height="64" color-interpolation="linearRGB" xmlns:svg="http://www.w3.org/2000/svg" xmlns="http://www.w3.org/2000/svg" xmlns:xlink="http://www.w3.org/1999/xlink"><defs><path d="M30 4C35.59 4 40 8.39 40 14C40 19.59 35.59 24 30 24C24.39 24 20 19.59 20 14C20 8.39 24.39 4 30 4z" fill="#010000" fill-opacity=".4823" id="reuse-0"/><path d="M30 4C35.59 4 40 8.39 40 14C40 19.59 35.59 24 30 24C24.39 24 20 19.59 20 14C20 8.39 24.39 4 30 4z" fill="none" stroke="#010000" stroke-width="4" id="reuse-1"/></defs><g><path d="M34 64H38L60 42L56 40H34V64z" fill="#010000" fill-opacity=".4823"/><use transform="matrix(1.2,0,0,0.6999,12,41.2)" fill-opacity=".4823" xlink:href="#reuse-0"/><path d="M2 42V46L34 62L54 42V38L24 25L2 42z" fill="none" stroke="#010000" stroke-width="4"/><linearGradient id="a" gradientUnits="userSpaceOnUse" x1="75.24" y1="45.19" x2="69.61" y2="66.48"><stop offset="0" stop-color="#999999"/><stop offset=".996" stop-color="#6c6c6c"/></linearGradient><path d="M34 56V62L54 42V38L34 56z" fill="url(#a)"/><linearGradient id="b" gradientUnits="userSpaceOnUse" x1="25.05" y1="21.51" x2="44.62" y2="40.62"><stop offset="0" stop-color="#cccccc"/><stop offset="1" stop-color="#a5a5a5"/></linearGradient><path d="M34 56V62L2 46V42L34 56z" fill="url(#b)"/><linearGradient id="c" gradientUnits="userSpaceOnUse" x1="54.76" y1="9.26" x2="65.08" y2="30.93"><stop offset="0" stop-color="#e5e5e5"/><stop offset="1" stop-color="#cbcbcb"/></linearGradient><path d="M2 42L34 56L41.97 48.82C32 46 34 38 49.67 36.12L24 25L2 42z" fill="url(#c)"/><path d="M41.97 48.82L54 38L49.67 36.12C34 38 32 46 41.97 48.82z" fill="#9b9b9b"/><use transform="matrix(1.2,0,0,0.8999,-8,26.4)" stroke-width="4" xlink:href="#reuse-1"/><radialGradient id="d" gradientUnits="userSpaceOnUse" cx="0" cy="0" r="64" gradientTransform="matrix(0.2188,-0.1207,0.1207,0.2188,23.1307,9.8599)"><stop offset="0" stop-color="#e4e4e4"/><stop offset="1" stop-color="#212121"/></radialGradient><path d="M30 4C35.59 4 40 8.39 40 14C40 19.59 35.59 24 30 24C24.39 24 20 19.59 20 14C20 8.39 24.39 4 30 4z" transform="matrix(1.2,0,0,0.8999,-8,26.3999)" fill="url(#d)"/><linearGradient id="e" gradientUnits="userSpaceOnUse" x1="19.89" y1="2.11" x2="39.9" y2="1.94"><stop offset=".007" stop-color="#bebebe"/><stop offset="1" stop-color="#0b0b0b"/></linearGradient><path d="M30 4C35.59 4 40 8.39 40 14C40 19.59 35.59 24 30 24C24.39 24 20 19.59 20 14C20 8.39 24.39 4 30 4z" transform="matrix(0.8999,0,0,0.6083,1,28.4833)" fill="none" stroke="url(#e)" stroke-width="4"/><linearGradient id="f" gradientUnits="userSpaceOnUse" x1="34.5" y1="20.89" x2="41.58" y2="24.61"><stop offset=".004" stop-color="#010000"/><stop offset=".466" stop-color="#6c6c6c"/><stop offset=".996" stop-color="#010101"/></linearGradient><path d="M30 4C35.59 4 40 8.39 40 14C40 19.59 35.59 24 30 24C24.39 24 20 19.59 20 14C20 8.39 24.39 4 30 4z" transform="matrix(0.8999,0,0,0.6499,1,27.3999)" fill="url(#f)"/><use transform="matrix(0.4,0,0,0.3,16,34.7999)" xlink:href="#reuse-0"/><radialGradient id="g" gradientUnits="userSpaceOnUse" cx="0" cy="0" r="64" gradientTransform="matrix(0.0625,0,0,0.2343,26,25.5)"><stop offset="0" stop-color="#ffffff"/><stop offset=".788" stop-color="#868686"/><stop offset="1" stop-color="#414141"/></radialGradient><path d="M28 41C28.73 41 29.4 40.84 30 40.58V23H26V40.58C26.59 40.84 27.26 41 28 41z" fill="url(#g)"/><use transform="matrix(1,0,0,1,-2,2)" stroke-width="4" xlink:href="#reuse-1"/><radialGradient id="h" gradientUnits="userSpaceOnUse" cx="0" cy="0" r="64" gradientTransform="matrix(0.2069,0,0,0.2069,26.9995,9.9995)"><stop offset="0" stop-color="#ffffff"/><stop offset=".5" stop-color="#ff3300"/><stop offset="1" stop-color="#cc0000"/></radialGradient><path d="M30 4C35.59 4 40 8.39 40 14C40 19.59 35.59 24 30 24C24.39 24 20 19.59 20 14C20 8.39 24.39 4 30 4z" transform="matrix(1,0,0,1,-2,2)" fill="url(#h)"/><path d="M52 36C52 37 52 38 49 38C46 38 46 37 46 36C46 35 46 33 49 33C52 33 52 35 52 36z" transform="matrix(1,0,0,1,-2,2)" fill="none" stroke="#010000" stroke-width="4"/><linearGradient id="i" gradientUnits="userSpaceOnUse" x1="46" y1="32" x2="54" y2="32"><stop offset="0" stop-color="#ff5959"/><stop offset=".602" stop-color="#b30404"/><stop offset="1" stop-color="#ff0606"/></linearGradient><path d="M52 36C52 37 52 38 49 38C46 38 46 37 46 36C46 35 46 33 49 33C52 33 52 35 52 36z" transform="matrix(1,0,0,1,-2,2)" fill="url(#i)"/><radialGradient id="j" gradientUnits="userSpaceOnUse" cx="0" cy="0" r="64" gradientTransform="matrix(0.2187,0,0,0.2187,26,10)"><stop offset="0" stop-color="#ffd5d5"/><stop offset=".439" stop-color="#fbaaaa"/><stop offset="1" stop-color="#ee0606"/></radialGradient><path d="M30 4C35.59 4 40 8.39 40 14C40 19.59 35.59 24 30 24C24.39 24 20 19.59 20 14C20 8.39 24.39 4 30 4z" transform="matrix(0.3,0,0,0.2,38,33.2)" fill="url(#j)"/></g></svg>