<svg width="64" height="64" color-interpolation="linearRGB" xmlns:svg="http://www.w3.org/2000/svg" xmlns="http://www.w3.org/2000/svg" xmlns:xlink="http://www.w3.org/1999/xlink"><defs><path d="M45 32V17" fill="none" stroke="#000" stroke-width="6" stroke-linecap="round" stroke-linejoin="round" id="reuse-0"/><path d="M28 30C30 30 32 32 32 34C32 36 30 38 28 38C26 38 24 36 24 34C24 32 26 30 28 30z" fill="none" stroke="#000" stroke-width="4" id="reuse-1"/><path d="M30 35C28 37 26 36 26 35C26 34 29 33 29 34C29 35 26 34 26 33C26 32 28 31 30 33" fill="none" stroke="#a98f04" stroke-width="1" stroke-linecap="round" stroke-linejoin="round" id="reuse-2"/><path d="M29.02 43.46C27 45 26 47 26 50C26 52 27 53 27 53L29 54C29 54 31 55 32 54V45L29.02 43.46z" fill="none" stroke="#000" stroke-width="4" id="reuse-3"/></defs><g><path d="M40 60L50 58L60 47L52 40" fill="#000" fill-opacity=".4117"/><use transform="matrix(1,0,0,0.9333,-28,-11.6666)" stroke-width="6" stroke-linecap="round" stroke-linejoin="round" xlink:href="#reuse-0"/><radialGradient id="a" gradientUnits="userSpaceOnUse" cx="0" cy="0" r="64" gradientTransform="matrix(0.0468,0,0,0.2499,44,17)"><stop offset="0" stop-color="#ffffff"/><stop offset=".561" stop-color="#bbd0db"/><stop offset="1" stop-color="#7799a9"/></radialGradient><path d="M45 32V17" transform="matrix(1,0,0,1,-28,-12)" fill="none" stroke="url(#a)" stroke-width="2" stroke-linecap="round" stroke-linejoin="round"/><path d="M36 60L52 44L48 14L24 4L12 16L8 46L36 60z" fill="none" stroke="#000" stroke-width="4"/><linearGradient id="b" gradientUnits="userSpaceOnUse" x1="84.78" y1="-47.45" x2="111.82" y2="-9.6"><stop offset="0" stop-color="#bbd0db"/><stop offset="1" stop-color="#86acbf"/></linearGradient><path d="M36 60L52 44L48 14L24 4L12 16L8 46L36 60z" fill="url(#b)"/><linearGradient id="c" gradientUnits="userSpaceOnUse" x1="123.57" y1="-23.01" x2="129.14" y2="-1.87"><stop offset="0" stop-color="#eaf7ff"/><stop offset="1" stop-color="#bbd0db"/></linearGradient><path d="M36 26L12 16L24 4L48 14L36 26z" fill="url(#c)"/><linearGradient id="d" gradientUnits="userSpaceOnUse" x1="141.62" y1="67.01" x2="114.86" y2="104.03"><stop offset="0" stop-color="#7c9fb1"/><stop offset="1" stop-color="#526a75"/></linearGradient><path d="M36 26V60L52 44L48 14L36 26z" fill="url(#d)"/><use transform="matrix(0.9166,0,0,0.9166,-8.1672,-1.6674)" stroke-width="4" xlink:href="#reuse-1"/><radialGradient id="e" gradientUnits="userSpaceOnUse" cx="0" cy="0" r="64" gradientTransform="matrix(0.0937,0,0,0.0937,26,32)"><stop offset="0" stop-color="#ffffff"/><stop offset=".725" stop-color="#fff289"/><stop offset="1" stop-color="#e2b606"/></radialGradient><path d="M28 30C30 30 32 32 32 34C32 36 30 38 28 38C26 38 24 36 24 34C24 32 26 30 28 30z" transform="matrix(0.9166,0,0,0.9166,-8.1672,-1.6674)" fill="url(#e)"/><use transform="matrix(0.9166,0,0,0.9166,-8.1672,-1.6674)" stroke-width="1" stroke-linecap="round" stroke-linejoin="round" xlink:href="#reuse-2"/><use stroke-width="4" xlink:href="#reuse-1"/><radialGradient id="f" gradientUnits="userSpaceOnUse" cx="0" cy="0" r="64" gradientTransform="matrix(0.0937,0,0,0.0937,26,32)"><stop offset="0" stop-color="#ffffff"/><stop offset=".725" stop-color="#fff289"/><stop offset="1" stop-color="#e2b606"/></radialGradient><path d="M28 30C30 30 32 32 32 34C32 36 30 38 28 38C26 38 24 36 24 34C24 32 26 30 28 30z" fill="url(#f)"/><use stroke-width="1" stroke-linecap="round" stroke-linejoin="round" xlink:href="#reuse-2"/><use transform="matrix(1,0,0,0.8698,-15,-0.6523)" stroke-width="4" xlink:href="#reuse-3"/><linearGradient id="g" gradientUnits="userSpaceOnUse" x1="117.32" y1="83.76" x2="114.32" y2="90.64"><stop offset="0" stop-color="#fff289"/><stop offset=".278" stop-color="#ffffff"/><stop offset=".635" stop-color="#e2b606"/><stop offset="1" stop-color="#fff289"/></linearGradient><path d="M29.02 43.46C27 45 26 47 26 50C26 52 27 53 27 53L29 54C29 54 31 55 32 54V45L29.02 43.46z" transform="matrix(1,0,0,0.8698,-15,-0.6523)" fill="url(#g)"/><use transform="matrix(1,0,0,0.9349,-10,-1.3261)" stroke-width="4" xlink:href="#reuse-3"/><linearGradient id="h" gradientUnits="userSpaceOnUse" x1="117.32" y1="83.76" x2="114.32" y2="90.64"><stop offset="0" stop-color="#fff289"/><stop offset=".278" stop-color="#ffffff"/><stop offset=".635" stop-color="#e2b606"/><stop offset="1" stop-color="#fff289"/></linearGradient><path d="M29.02 43.46C27 45 26 47 26 50C26 52 27 53 27 53L29 54C29 54 31 55 32 54V45L29.02 43.46z" transform="matrix(1,0,0,0.9349,-10,-1.3261)" fill="url(#h)"/><use transform="matrix(1,0,0,0.9349,-5,0.6738)" stroke-width="4" xlink:href="#reuse-3"/><linearGradient id="i" gradientUnits="userSpaceOnUse" x1="117.32" y1="83.76" x2="114.32" y2="90.64"><stop offset="0" stop-color="#fff289"/><stop offset=".278" stop-color="#ffffff"/><stop offset=".635" stop-color="#e2b606"/><stop offset="1" stop-color="#fff289"/></linearGradient><path d="M29.02 43.46C27 45 26 47 26 50C26 52 27 53 27 53L29 54C29 54 31 55 32 54V45L29.02 43.46z" transform="matrix(1,0,0,0.9349,-5,0.6738)" fill="url(#i)"/><use stroke-width="4" xlink:href="#reuse-3"/><linearGradient id="j" gradientUnits="userSpaceOnUse" x1="117.32" y1="83.76" x2="114.32" y2="90.64"><stop offset="0" stop-color="#fff289"/><stop offset=".278" stop-color="#ffffff"/><stop offset=".635" stop-color="#e2b606"/><stop offset="1" stop-color="#fff289"/></linearGradient><path d="M29.02 43.46C27 45 26 47 26 50C26 52 27 53 27 53L29 54C29 54 31 55 32 54V45L29.02 43.46z" fill="url(#j)"/><path d="M32 45V54C31 55 29 54 29 52C29 50 29.98 46.97 32 45z" fill="#d1a305"/><path d="M44 30C47 30 50 32 50 36C50 39 47 42 44 42C41 42 40 40 40 37C40 35 41 30 44 30z" transform="matrix(1,0,0,1,2,4)" fill="#000" fill-opacity=".4117"/><path d="M44 30C47 30 50 32 50 36C50 39 47 42 44 42C41 42 40 40 40 37C40 35 41 30 44 30z" fill="none" stroke="#000" stroke-width="4"/><radialGradient id="k" gradientUnits="userSpaceOnUse" cx="0" cy="0" r="64" gradientTransform="matrix(0.1093,0,0,0.1406,43,34)"><stop offset="0" stop-color="#ffffff"/><stop offset=".325" stop-color="#bbd0db"/><stop offset=".784" stop-color="#63818f"/><stop offset="1" stop-color="#90b3c5"/></radialGradient><path d="M44 30C47 30 50 32 50 36C50 39 47 42 44 42C41 42 40 40 40 37C40 35 41 30 44 30z" fill="url(#k)"/><use transform="matrix(1,0,0,0.9333,0,0.3333)" stroke-width="6" stroke-linecap="round" stroke-linejoin="round" xlink:href="#reuse-0"/><radialGradient id="l" gradientUnits="userSpaceOnUse" cx="0" cy="0" r="64" gradientTransform="matrix(0.0468,0,0,0.2499,44,17)"><stop offset="0" stop-color="#ffffff"/><stop offset=".561" stop-color="#bbd0db"/><stop offset="1" stop-color="#7799a9"/></radialGradient><path d="M45 32V17" fill="none" stroke="url(#l)" stroke-width="2" stroke-linecap="round" stroke-linejoin="round"/></g></svg>